<?xml version='1.0' encoding='UTF-8'?>
<svg width="42mm" height="42mm" version="1.1" viewBox="0 0 42 42" xmlns="http://www.w3.org/2000/svg"><path d="M3.6,3.6H4.8V4.8H3.6zM4.8,3.6H6V4.8H4.8zM6,3.6H7.2V4.8H6zM7.2,3.6H8.4V4.8H7.2zM8.4,3.6H9.6V4.8H8.4zM9.6,3.6H10.8V4.8H9.6zM10.8,3.6H12V4.8H10.8zM13.2,3.6H14.4V4.8H13.2zM15.6,3.6H16.8V4.8H15.6zM18,3.6H19.2V4.8H18zM19.2,3.6H20.4V4.8H19.2zM22.8,3.6H24V4.8H22.8zM25.2,3.6H26.4V4.8H25.2zM26.4,3.6H27.6V4.8H26.4zM27.6,3.6H28.8V4.8H27.6zM30,3.6H31.2V4.8H30zM31.2,3.6H32.4V4.8H31.2zM32.4,3.6H33.6V4.8H32.4zM33.6,3.6H34.8V4.8H33.6zM34.8,3.6H36V4.8H34.8zM36,3.6H37.2V4.8H36zM37.2,3.6H38.4V4.8H37.2zM3.6,4.8H4.8V6H3.6zM10.8,4.8H12V6H10.8zM13.2,4.8H14.4V6H13.2zM14.4,4.8H15.6V6H14.4zM15.6,4.8H16.8V6H15.6zM16.8,4.8H18V6H16.8zM18,4.8H19.2V6H18zM20.4,4.8H21.6V6H20.4zM22.8,4.8H24V6H22.8zM24,4.8H25.2V6H24zM26.4,4.8H27.6V6H26.4zM30,4.8H31.2V6H30zM37.2,4.8H38.4V6H37.2zM3.6,6H4.8V7.2H3.6zM6,6H7.2V7.2H6zM7.2,6H8.4V7.2H7.2zM8.4,6H9.6V7.2H8.4zM10.8,6H12V7.2H10.8zM13.2,6H14.4V7.2H13.2zM14.4,6H15.6V7.2H14.4zM15.6,6H16.8V7.2H15.6zM18,6H19.2V7.2H18zM19.2,6H20.4V7.2H19.2zM21.6,6H22.8V7.2H21.6zM22.8,6H24V7.2H22.8zM27.6,6H28.8V7.2H27.6zM30,6H31.2V7.2H30zM32.4,6H33.6V7.2H32.4zM33.6,6H34.8V7.2H33.6zM34.8,6H36V7.2H34.8zM37.2,6H38.4V7.2H37.2zM3.6,7.2H4.8V8.4H3.6zM6,7.2H7.2V8.4H6zM7.2,7.2H8.4V8.4H7.2zM8.4,7.2H9.6V8.4H8.4zM10.8,7.2H12V8.4H10.8zM13.2,7.2H14.4V8.4H13.2zM15.6,7.2H16.8V8.4H15.6zM16.8,7.2H18V8.4H16.8zM18,7.2H19.2V8.4H18zM19.2,7.2H20.4V8.4H19.2zM21.6,7.2H22.8V8.4H21.6zM25.2,7.2H26.4V8.4H25.2zM30,7.2H31.2V8.4H30zM32.4,7.2H33.6V8.4H32.4zM33.6,7.2H34.8V8.4H33.6zM34.8,7.2H36V8.4H34.8zM37.2,7.2H38.4V8.4H37.2zM3.6,8.4H4.8V9.6H3.6zM6,8.4H7.2V9.6H6zM7.2,8.4H8.4V9.6H7.2zM8.4,8.4H9.6V9.6H8.4zM10.8,8.4H12V9.6H10.8zM13.2,8.4H14.4V9.6H13.2zM15.6,8.4H16.8V9.6H15.6zM19.2,8.4H20.4V9.6H19.2zM21.6,8.4H22.8V9.6H21.6zM22.8,8.4H24V9.6H22.8zM24,8.4H25.2V9.6H24zM25.2,8.4H26.4V9.6H25.2zM26.4,8.4H27.6V9.6H26.4zM30,8.4H31.2V9.6H30zM32.4,8.4H33.6V9.6H32.4zM33.6,8.4H34.8V9.6H33.6zM34.8,8.4H36V9.6H34.8zM37.2,8.4H38.4V9.6H37.2zM3.6,9.6H4.8V10.8H3.6zM10.8,9.6H12V10.8H10.8zM14.4,9.6H15.6V10.8H14.4zM15.6,9.6H16.8V10.8H15.6zM19.2,9.6H20.4V10.8H19.2zM20.4,9.6H21.6V10.8H20.4zM25.2,9.6H26.4V10.8H25.2zM26.4,9.6H27.6V10.8H26.4zM27.6,9.6H28.8V10.8H27.6zM30,9.6H31.2V10.8H30zM37.2,9.6H38.4V10.8H37.2zM3.6,10.8H4.8V12H3.6zM4.8,10.8H6V12H4.8zM6,10.8H7.2V12H6zM7.2,10.8H8.4V12H7.2zM8.4,10.8H9.6V12H8.4zM9.6,10.8H10.8V12H9.6zM10.8,10.8H12V12H10.8zM13.2,10.8H14.4V12H13.2zM15.6,10.8H16.8V12H15.6zM18,10.8H19.2V12H18zM20.4,10.8H21.6V12H20.4zM22.8,10.8H24V12H22.8zM25.2,10.8H26.4V12H25.2zM27.6,10.8H28.8V12H27.6zM30,10.8H31.2V12H30zM31.2,10.8H32.4V12H31.2zM32.4,10.8H33.6V12H32.4zM33.6,10.8H34.8V12H33.6zM34.8,10.8H36V12H34.8zM36,10.8H37.2V12H36zM37.2,10.8H38.4V12H37.2zM13.2,12H14.4V13.2H13.2zM15.6,12H16.8V13.2H15.6zM18,12H19.2V13.2H18zM19.2,12H20.4V13.2H19.2zM24,12H25.2V13.2H24zM4.8,13.2H6V14.4H4.8zM6,13.2H7.2V14.4H6zM8.4,13.2H9.6V14.4H8.4zM10.8,13.2H12V14.4H10.8zM12,13.2H13.2V14.4H12zM14.4,13.2H15.6V14.4H14.4zM15.6,13.2H16.8V14.4H15.6zM18,13.2H19.2V14.4H18zM20.4,13.2H21.6V14.4H20.4zM21.6,13.2H22.8V14.4H21.6zM24,13.2H25.2V14.4H24zM30,13.2H31.2V14.4H30zM32.4,13.2H33.6V14.4H32.4zM33.6,13.2H34.8V14.4H33.6zM34.8,13.2H36V14.4H34.8zM36,13.2H37.2V14.4H36zM37.2,13.2H38.4V14.4H37.2zM3.6,14.4H4.8V15.6H3.6zM4.8,14.4H6V15.6H4.8zM7.2,14.4H8.4V15.6H7.2zM8.4,14.4H9.6V15.6H8.4zM9.6,14.4H10.8V15.6H9.6zM12,14.4H13.2V15.6H12zM14.4,14.4H15.6V15.6H14.4zM18,14.4H19.2V15.6H18zM19.2,14.4H20.4V15.6H19.2zM21.6,14.4H22.8V15.6H21.6zM22.8,14.4H24V15.6H22.8zM27.6,14.4H28.8V15.6H27.6zM28.8,14.4H30V15.6H28.8zM30,14.4H31.2V15.6H30zM33.6,14.4H34.8V15.6H33.6zM34.8,14.4H36V15.6H34.8zM37.2,14.4H38.4V15.6H37.2zM7.2,15.6H8.4V16.8H7.2zM8.4,15.6H9.6V16.8H8.4zM10.8,15.6H12V16.8H10.8zM12,15.6H13.2V16.8H12zM13.2,15.6H14.4V16.8H13.2zM14.4,15.6H15.6V16.8H14.4zM15.6,15.6H16.8V16.8H15.6zM19.2,15.6H20.4V16.8H19.2zM21.6,15.6H22.8V16.8H21.6zM28.8,15.6H30V16.8H28.8zM31.2,15.6H32.4V16.8H31.2zM34.8,15.6H36V16.8H34.8zM36,15.6H37.2V16.8H36zM37.2,15.6H38.4V16.8H37.2zM3.6,16.8H4.8V18H3.6zM4.8,16.8H6V18H4.8zM8.4,16.8H9.6V18H8.4zM9.6,16.8H10.8V18H9.6zM12,16.8H13.2V18H12zM13.2,16.8H14.4V18H13.2zM14.4,16.8H15.6V18H14.4zM15.6,16.8H16.8V18H15.6zM16.8,16.8H18V18H16.8zM19.2,16.8H20.4V18H19.2zM21.6,16.8H22.8V18H21.6zM22.8,16.8H24V18H22.8zM24,16.8H25.2V18H24zM26.4,16.8H27.6V18H26.4zM27.6,16.8H28.8V18H27.6zM30,16.8H31.2V18H30zM32.4,16.8H33.6V18H32.4zM33.6,16.8H34.8V18H33.6zM36,16.8H37.2V18H36zM6,18H7.2V19.2H6zM7.2,18H8.4V19.2H7.2zM9.6,18H10.8V19.2H9.6zM10.8,18H12V19.2H10.8zM15.6,18H16.8V19.2H15.6zM16.8,18H18V19.2H16.8zM18,18H19.2V19.2H18zM19.2,18H20.4V19.2H19.2zM20.4,18H21.6V19.2H20.4zM22.8,18H24V19.2H22.8zM24,18H25.2V19.2H24zM27.6,18H28.8V19.2H27.6zM30,18H31.2V19.2H30zM33.6,18H34.8V19.2H33.6zM4.8,19.2H6V20.4H4.8zM6,19.2H7.2V20.4H6zM7.2,19.2H8.4V20.4H7.2zM12,19.2H13.2V20.4H12zM14.4,19.2H15.6V20.4H14.4zM16.8,19.2H18V20.4H16.8zM18,19.2H19.2V20.4H18zM22.8,19.2H24V20.4H22.8zM27.6,19.2H28.8V20.4H27.6zM28.8,19.2H30V20.4H28.8zM30,19.2H31.2V20.4H30zM31.2,19.2H32.4V20.4H31.2zM37.2,19.2H38.4V20.4H37.2zM7.2,20.4H8.4V21.6H7.2zM8.4,20.4H9.6V21.6H8.4zM10.8,20.4H12V21.6H10.8zM12,20.4H13.2V21.6H12zM14.4,20.4H15.6V21.6H14.4zM16.8,20.4H18V21.6H16.8zM18,20.4H19.2V21.6H18zM19.2,20.4H20.4V21.6H19.2zM25.2,20.4H26.4V21.6H25.2zM34.8,20.4H36V21.6H34.8zM37.2,20.4H38.4V21.6H37.2zM3.6,21.6H4.8V22.8H3.6zM6,21.6H7.2V22.8H6zM7.2,21.6H8.4V22.8H7.2zM8.4,21.6H9.6V22.8H8.4zM9.6,21.6H10.8V22.8H9.6zM13.2,21.6H14.4V22.8H13.2zM15.6,21.6H16.8V22.8H15.6zM24,21.6H25.2V22.8H24zM27.6,21.6H28.8V22.8H27.6zM31.2,21.6H32.4V22.8H31.2zM32.4,21.6H33.6V22.8H32.4zM36,21.6H37.2V22.8H36zM37.2,21.6H38.4V22.8H37.2zM3.6,22.8H4.8V24H3.6zM9.6,22.8H10.8V24H9.6zM10.8,22.8H12V24H10.8zM12,22.8H13.2V24H12zM13.2,22.8H14.4V24H13.2zM14.4,22.8H15.6V24H14.4zM15.6,22.8H16.8V24H15.6zM16.8,22.8H18V24H16.8zM19.2,22.8H20.4V24H19.2zM20.4,22.8H21.6V24H20.4zM21.6,22.8H22.8V24H21.6zM22.8,22.8H24V24H22.8zM24,22.8H25.2V24H24zM26.4,22.8H27.6V24H26.4zM27.6,22.8H28.8V24H27.6zM28.8,22.8H30V24H28.8zM30,22.8H31.2V24H30zM33.6,22.8H34.8V24H33.6zM4.8,24H6V25.2H4.8zM6,24H7.2V25.2H6zM12,24H13.2V25.2H12zM13.2,24H14.4V25.2H13.2zM14.4,24H15.6V25.2H14.4zM15.6,24H16.8V25.2H15.6zM18,24H19.2V25.2H18zM21.6,24H22.8V25.2H21.6zM25.2,24H26.4V25.2H25.2zM27.6,24H28.8V25.2H27.6zM28.8,24H30V25.2H28.8zM30,24H31.2V25.2H30zM31.2,24H32.4V25.2H31.2zM33.6,24H34.8V25.2H33.6zM36,24H37.2V25.2H36zM37.2,24H38.4V25.2H37.2zM3.6,25.2H4.8V26.4H3.6zM6,25.2H7.2V26.4H6zM8.4,25.2H9.6V26.4H8.4zM9.6,25.2H10.8V26.4H9.6zM10.8,25.2H12V26.4H10.8zM12,25.2H13.2V26.4H12zM15.6,25.2H16.8V26.4H15.6zM16.8,25.2H18V26.4H16.8zM18,25.2H19.2V26.4H18zM19.2,25.2H20.4V26.4H19.2zM22.8,25.2H24V26.4H22.8zM25.2,25.2H26.4V26.4H25.2zM27.6,25.2H28.8V26.4H27.6zM28.8,25.2H30V26.4H28.8zM32.4,25.2H33.6V26.4H32.4zM34.8,25.2H36V26.4H34.8zM36,25.2H37.2V26.4H36zM37.2,25.2H38.4V26.4H37.2zM4.8,26.4H6V27.6H4.8zM7.2,26.4H8.4V27.6H7.2zM8.4,26.4H9.6V27.6H8.4zM12,26.4H13.2V27.6H12zM15.6,26.4H16.8V27.6H15.6zM18,26.4H19.2V27.6H18zM20.4,26.4H21.6V27.6H20.4zM21.6,26.4H22.8V27.6H21.6zM22.8,26.4H24V27.6H22.8zM24,26.4H25.2V27.6H24zM26.4,26.4H27.6V27.6H26.4zM27.6,26.4H28.8V27.6H27.6zM30,26.4H31.2V27.6H30zM31.2,26.4H32.4V27.6H31.2zM33.6,26.4H34.8V27.6H33.6zM36,26.4H37.2V27.6H36zM3.6,27.6H4.8V28.8H3.6zM6,27.6H7.2V28.8H6zM7.2,27.6H8.4V28.8H7.2zM8.4,27.6H9.6V28.8H8.4zM9.6,27.6H10.8V28.8H9.6zM10.8,27.6H12V28.8H10.8zM12,27.6H13.2V28.8H12zM13.2,27.6H14.4V28.8H13.2zM14.4,27.6H15.6V28.8H14.4zM19.2,27.6H20.4V28.8H19.2zM20.4,27.6H21.6V28.8H20.4zM21.6,27.6H22.8V28.8H21.6zM24,27.6H25.2V28.8H24zM27.6,27.6H28.8V28.8H27.6zM28.8,27.6H30V28.8H28.8zM30,27.6H31.2V28.8H30zM31.2,27.6H32.4V28.8H31.2zM32.4,27.6H33.6V28.8H32.4zM33.6,27.6H34.8V28.8H33.6zM37.2,27.6H38.4V28.8H37.2zM13.2,28.8H14.4V30H13.2zM14.4,28.8H15.6V30H14.4zM15.6,28.8H16.8V30H15.6zM20.4,28.8H21.6V30H20.4zM22.8,28.8H24V30H22.8zM24,28.8H25.2V30H24zM26.4,28.8H27.6V30H26.4zM27.6,28.8H28.8V30H27.6zM32.4,28.8H33.6V30H32.4zM37.2,28.8H38.4V30H37.2zM3.6,30H4.8V31.2H3.6zM4.8,30H6V31.2H4.8zM6,30H7.2V31.2H6zM7.2,30H8.4V31.2H7.2zM8.4,30H9.6V31.2H8.4zM9.6,30H10.8V31.2H9.6zM10.8,30H12V31.2H10.8zM13.2,30H14.4V31.2H13.2zM14.4,30H15.6V31.2H14.4zM16.8,30H18V31.2H16.8zM19.2,30H20.4V31.2H19.2zM26.4,30H27.6V31.2H26.4zM27.6,30H28.8V31.2H27.6zM30,30H31.2V31.2H30zM32.4,30H33.6V31.2H32.4zM34.8,30H36V31.2H34.8zM37.2,30H38.4V31.2H37.2zM3.6,31.2H4.8V32.4H3.6zM10.8,31.2H12V32.4H10.8zM20.4,31.2H21.6V32.4H20.4zM24,31.2H25.2V32.4H24zM27.6,31.2H28.8V32.4H27.6zM32.4,31.2H33.6V32.4H32.4zM36,31.2H37.2V32.4H36zM3.6,32.4H4.8V33.6H3.6zM6,32.4H7.2V33.6H6zM7.2,32.4H8.4V33.6H7.2zM8.4,32.4H9.6V33.6H8.4zM10.8,32.4H12V33.6H10.8zM13.2,32.4H14.4V33.6H13.2zM14.4,32.4H15.6V33.6H14.4zM16.8,32.4H18V33.6H16.8zM22.8,32.4H24V33.6H22.8zM24,32.4H25.2V33.6H24zM27.6,32.4H28.8V33.6H27.6zM28.8,32.4H30V33.6H28.8zM30,32.4H31.2V33.6H30zM31.2,32.4H32.4V33.6H31.2zM32.4,32.4H33.6V33.6H32.4zM33.6,32.4H34.8V33.6H33.6zM36,32.4H37.2V33.6H36zM37.2,32.4H38.4V33.6H37.2zM3.6,33.6H4.8V34.8H3.6zM6,33.6H7.2V34.8H6zM7.2,33.6H8.4V34.8H7.2zM8.4,33.6H9.6V34.8H8.4zM10.8,33.6H12V34.8H10.8zM15.6,33.6H16.8V34.8H15.6zM16.8,33.6H18V34.8H16.8zM18,33.6H19.2V34.8H18zM19.2,33.6H20.4V34.8H19.2zM22.8,33.6H24V34.8H22.8zM26.4,33.6H27.6V34.8H26.4zM32.4,33.6H33.6V34.8H32.4zM33.6,33.6H34.8V34.8H33.6zM34.8,33.6H36V34.8H34.8zM36,33.6H37.2V34.8H36zM37.2,33.6H38.4V34.8H37.2zM3.6,34.8H4.8V36H3.6zM6,34.8H7.2V36H6zM7.2,34.8H8.4V36H7.2zM8.4,34.8H9.6V36H8.4zM10.8,34.8H12V36H10.8zM13.2,34.8H14.4V36H13.2zM14.4,34.8H15.6V36H14.4zM16.8,34.8H18V36H16.8zM18,34.8H19.2V36H18zM24,34.8H25.2V36H24zM26.4,34.8H27.6V36H26.4zM32.4,34.8H33.6V36H32.4zM34.8,34.8H36V36H34.8zM37.2,34.8H38.4V36H37.2zM3.6,36H4.8V37.2H3.6zM10.8,36H12V37.2H10.8zM13.2,36H14.4V37.2H13.2zM14.4,36H15.6V37.2H14.4zM15.6,36H16.8V37.2H15.6zM18,36H19.2V37.2H18zM20.4,36H21.6V37.2H20.4zM21.6,36H22.8V37.2H21.6zM22.8,36H24V37.2H22.8zM24,36H25.2V37.2H24zM25.2,36H26.4V37.2H25.2zM26.4,36H27.6V37.2H26.4zM27.6,36H28.8V37.2H27.6zM30,36H31.2V37.2H30zM31.2,36H32.4V37.2H31.2zM33.6,36H34.8V37.2H33.6zM36,36H37.2V37.2H36zM3.6,37.2H4.8V38.4H3.6zM4.8,37.2H6V38.4H4.8zM6,37.2H7.2V38.4H6zM7.2,37.2H8.4V38.4H7.2zM8.4,37.2H9.6V38.4H8.4zM9.6,37.2H10.8V38.4H9.6zM10.8,37.2H12V38.4H10.8zM14.4,37.2H15.6V38.4H14.4zM15.6,37.2H16.8V38.4H15.6zM20.4,37.2H21.6V38.4H20.4zM21.6,37.2H22.8V38.4H21.6zM24,37.2H25.2V38.4H24zM26.4,37.2H27.6V38.4H26.4zM27.6,37.2H28.8V38.4H27.6zM32.4,37.2H33.6V38.4H32.4zM33.6,37.2H34.8V38.4H33.6zM36,37.2H37.2V38.4H36zM37.2,37.2H38.4V38.4H37.2z" id="qr-path" fill="#000000" fill-opacity="1" fill-rule="nonzero" stroke="none"/></svg>