<?xml version='1.0' encoding='UTF-8'?>
<svg width="56.4mm" height="56.4mm" version="1.1" viewBox="0 0 56.4 56.4" xmlns="http://www.w3.org/2000/svg"><path d="M3.6,3.6H4.8V4.8H3.6zM4.8,3.6H6V4.8H4.8zM6,3.6H7.2V4.8H6zM7.2,3.6H8.4V4.8H7.2zM8.4,3.6H9.6V4.8H8.4zM9.6,3.6H10.8V4.8H9.6zM10.8,3.6H12V4.8H10.8zM13.2,3.6H14.4V4.8H13.2zM15.6,3.6H16.8V4.8H15.6zM16.8,3.6H18V4.8H16.8zM20.4,3.6H21.6V4.8H20.4zM21.6,3.6H22.8V4.8H21.6zM25.2,3.6H26.4V4.8H25.2zM26.4,3.6H27.6V4.8H26.4zM30,3.6H31.2V4.8H30zM31.2,3.6H32.4V4.8H31.2zM32.4,3.6H33.6V4.8H32.4zM36,3.6H37.2V4.8H36zM38.4,3.6H39.6V4.8H38.4zM39.6,3.6H40.8V4.8H39.6zM40.8,3.6H42V4.8H40.8zM44.4,3.6H45.6V4.8H44.4zM45.6,3.6H46.8V4.8H45.6zM46.8,3.6H48V4.8H46.8zM48,3.6H49.2V4.8H48zM49.2,3.6H50.4V4.8H49.2zM50.4,3.6H51.6V4.8H50.4zM51.6,3.6H52.8V4.8H51.6zM3.6,4.8H4.8V6H3.6zM10.8,4.8H12V6H10.8zM13.2,4.8H14.4V6H13.2zM14.4,4.8H15.6V6H14.4zM15.6,4.8H16.8V6H15.6zM18,4.8H19.2V6H18zM19.2,4.8H20.4V6H19.2zM20.4,4.8H21.6V6H20.4zM21.6,4.8H22.8V6H21.6zM24,4.8H25.2V6H24zM25.2,4.8H26.4V6H25.2zM28.8,4.8H30V6H28.8zM33.6,4.8H34.8V6H33.6zM36,4.8H37.2V6H36zM39.6,4.8H40.8V6H39.6zM40.8,4.8H42V6H40.8zM44.4,4.8H45.6V6H44.4zM51.6,4.8H52.8V6H51.6zM3.6,6H4.8V7.2H3.6zM6,6H7.2V7.2H6zM7.2,6H8.4V7.2H7.2zM8.4,6H9.6V7.2H8.4zM10.8,6H12V7.2H10.8zM13.2,6H14.4V7.2H13.2zM14.4,6H15.6V7.2H14.4zM15.6,6H16.8V7.2H15.6zM16.8,6H18V7.2H16.8zM22.8,6H24V7.2H22.8zM24,6H25.2V7.2H24zM25.2,6H26.4V7.2H25.2zM32.4,6H33.6V7.2H32.4zM37.2,6H38.4V7.2H37.2zM38.4,6H39.6V7.2H38.4zM39.6,6H40.8V7.2H39.6zM40.8,6H42V7.2H40.8zM44.4,6H45.6V7.2H44.4zM46.8,6H48V7.2H46.8zM48,6H49.2V7.2H48zM49.2,6H50.4V7.2H49.2zM51.6,6H52.8V7.2H51.6zM3.6,7.2H4.8V8.4H3.6zM6,7.2H7.2V8.4H6zM7.2,7.2H8.4V8.4H7.2zM8.4,7.2H9.6V8.4H8.4zM10.8,7.2H12V8.4H10.8zM13.2,7.2H14.4V8.4H13.2zM24,7.2H25.2V8.4H24zM26.4,7.2H27.6V8.4H26.4zM27.6,7.2H28.8V8.4H27.6zM28.8,7.2H30V8.4H28.8zM30,7.2H31.2V8.4H30zM32.4,7.2H33.6V8.4H32.4zM33.6,7.2H34.8V8.4H33.6zM38.4,7.2H39.6V8.4H38.4zM39.6,7.2H40.8V8.4H39.6zM42,7.2H43.2V8.4H42zM44.4,7.2H45.6V8.4H44.4zM46.8,7.2H48V8.4H46.8zM48,7.2H49.2V8.4H48zM49.2,7.2H50.4V8.4H49.2zM51.6,7.2H52.8V8.4H51.6zM3.6,8.4H4.8V9.6H3.6zM6,8.4H7.2V9.6H6zM7.2,8.4H8.4V9.6H7.2zM8.4,8.4H9.6V9.6H8.4zM10.8,8.4H12V9.6H10.8zM13.2,8.4H14.4V9.6H13.2zM14.4,8.4H15.6V9.6H14.4zM16.8,8.4H18V9.6H16.8zM19.2,8.4H20.4V9.6H19.2zM20.4,8.4H21.6V9.6H20.4zM22.8,8.4H24V9.6H22.8zM24,8.4H25.2V9.6H24zM25.2,8.4H26.4V9.6H25.2zM27.6,8.4H28.8V9.6H27.6zM28.8,8.4H30V9.6H28.8zM36,8.4H37.2V9.6H36zM37.2,8.4H38.4V9.6H37.2zM38.4,8.4H39.6V9.6H38.4zM39.6,8.4H40.8V9.6H39.6zM40.8,8.4H42V9.6H40.8zM44.4,8.4H45.6V9.6H44.4zM46.8,8.4H48V9.6H46.8zM48,8.4H49.2V9.6H48zM49.2,8.4H50.4V9.6H49.2zM51.6,8.4H52.8V9.6H51.6zM3.6,9.6H4.8V10.8H3.6zM10.8,9.6H12V10.8H10.8zM14.4,9.6H15.6V10.8H14.4zM15.6,9.6H16.8V10.8H15.6zM16.8,9.6H18V10.8H16.8zM20.4,9.6H21.6V10.8H20.4zM22.8,9.6H24V10.8H22.8zM24,9.6H25.2V10.8H24zM25.2,9.6H26.4V10.8H25.2zM28.8,9.6H30V10.8H28.8zM31.2,9.6H32.4V10.8H31.2zM33.6,9.6H34.8V10.8H33.6zM34.8,9.6H36V10.8H34.8zM36,9.6H37.2V10.8H36zM37.2,9.6H38.4V10.8H37.2zM38.4,9.6H39.6V10.8H38.4zM40.8,9.6H42V10.8H40.8zM44.4,9.6H45.6V10.8H44.4zM51.6,9.6H52.8V10.8H51.6zM3.6,10.8H4.8V12H3.6zM4.8,10.8H6V12H4.8zM6,10.8H7.2V12H6zM7.2,10.8H8.4V12H7.2zM8.4,10.8H9.6V12H8.4zM9.6,10.8H10.8V12H9.6zM10.8,10.8H12V12H10.8zM13.2,10.8H14.4V12H13.2zM15.6,10.8H16.8V12H15.6zM18,10.8H19.2V12H18zM20.4,10.8H21.6V12H20.4zM22.8,10.8H24V12H22.8zM25.2,10.8H26.4V12H25.2zM27.6,10.8H28.8V12H27.6zM30,10.8H31.2V12H30zM32.4,10.8H33.6V12H32.4zM34.8,10.8H36V12H34.8zM37.2,10.8H38.4V12H37.2zM39.6,10.8H40.8V12H39.6zM42,10.8H43.2V12H42zM44.4,10.8H45.6V12H44.4zM45.6,10.8H46.8V12H45.6zM46.8,10.8H48V12H46.8zM48,10.8H49.2V12H48zM49.2,10.8H50.4V12H49.2zM50.4,10.8H51.6V12H50.4zM51.6,10.8H52.8V12H51.6zM13.2,12H14.4V13.2H13.2zM14.4,12H15.6V13.2H14.4zM18,12H19.2V13.2H18zM22.8,12H24V13.2H22.8zM30,12H31.2V13.2H30zM31.2,12H32.4V13.2H31.2zM33.6,12H34.8V13.2H33.6zM36,12H37.2V13.2H36zM38.4,12H39.6V13.2H38.4zM40.8,12H42V13.2H40.8zM4.8,13.2H6V14.4H4.8zM6,13.2H7.2V14.4H6zM8.4,13.2H9.6V14.4H8.4zM10.8,13.2H12V14.4H10.8zM12,13.2H13.2V14.4H12zM15.6,13.2H16.8V14.4H15.6zM16.8,13.2H18V14.4H16.8zM18,13.2H19.2V14.4H18zM30,13.2H31.2V14.4H30zM32.4,13.2H33.6V14.4H32.4zM33.6,13.2H34.8V14.4H33.6zM36,13.2H37.2V14.4H36zM38.4,13.2H39.6V14.4H38.4zM40.8,13.2H42V14.4H40.8zM44.4,13.2H45.6V14.4H44.4zM46.8,13.2H48V14.4H46.8zM48,13.2H49.2V14.4H48zM49.2,13.2H50.4V14.4H49.2zM50.4,13.2H51.6V14.4H50.4zM51.6,13.2H52.8V14.4H51.6zM4.8,14.4H6V15.6H4.8zM8.4,14.4H9.6V15.6H8.4zM16.8,14.4H18V15.6H16.8zM19.2,14.4H20.4V15.6H19.2zM24,14.4H25.2V15.6H24zM26.4,14.4H27.6V15.6H26.4zM28.8,14.4H30V15.6H28.8zM31.2,14.4H32.4V15.6H31.2zM37.2,14.4H38.4V15.6H37.2zM38.4,14.4H39.6V15.6H38.4zM42,14.4H43.2V15.6H42zM44.4,14.4H45.6V15.6H44.4zM45.6,14.4H46.8V15.6H45.6zM48,14.4H49.2V15.6H48zM49.2,14.4H50.4V15.6H49.2zM50.4,14.4H51.6V15.6H50.4zM51.6,14.4H52.8V15.6H51.6zM6,15.6H7.2V16.8H6zM7.2,15.6H8.4V16.8H7.2zM8.4,15.6H9.6V16.8H8.4zM10.8,15.6H12V16.8H10.8zM13.2,15.6H14.4V16.8H13.2zM16.8,15.6H18V16.8H16.8zM22.8,15.6H24V16.8H22.8zM27.6,15.6H28.8V16.8H27.6zM31.2,15.6H32.4V16.8H31.2zM44.4,15.6H45.6V16.8H44.4zM46.8,15.6H48V16.8H46.8zM49.2,15.6H50.4V16.8H49.2zM50.4,15.6H51.6V16.8H50.4zM51.6,15.6H52.8V16.8H51.6zM3.6,16.8H4.8V18H3.6zM4.8,16.8H6V18H4.8zM12,16.8H13.2V18H12zM13.2,16.8H14.4V18H13.2zM14.4,16.8H15.6V18H14.4zM15.6,16.8H16.8V18H15.6zM22.8,16.8H24V18H22.8zM24,16.8H25.2V18H24zM27.6,16.8H28.8V18H27.6zM30,16.8H31.2V18H30zM32.4,16.8H33.6V18H32.4zM33.6,16.8H34.8V18H33.6zM34.8,16.8H36V18H34.8zM38.4,16.8H39.6V18H38.4zM39.6,16.8H40.8V18H39.6zM42,16.8H43.2V18H42zM44.4,16.8H45.6V18H44.4zM45.6,16.8H46.8V18H45.6zM46.8,16.8H48V18H46.8zM50.4,16.8H51.6V18H50.4zM51.6,16.8H52.8V18H51.6zM3.6,18H4.8V19.2H3.6zM4.8,18H6V19.2H4.8zM6,18H7.2V19.2H6zM7.2,18H8.4V19.2H7.2zM10.8,18H12V19.2H10.8zM14.4,18H15.6V19.2H14.4zM18,18H19.2V19.2H18zM19.2,18H20.4V19.2H19.2zM20.4,18H21.6V19.2H20.4zM21.6,18H22.8V19.2H21.6zM24,18H25.2V19.2H24zM25.2,18H26.4V19.2H25.2zM26.4,18H27.6V19.2H26.4zM28.8,18H30V19.2H28.8zM30,18H31.2V19.2H30zM31.2,18H32.4V19.2H31.2zM33.6,18H34.8V19.2H33.6zM37.2,18H38.4V19.2H37.2zM38.4,18H39.6V19.2H38.4zM40.8,18H42V19.2H40.8zM43.2,18H44.4V19.2H43.2zM44.4,18H45.6V19.2H44.4zM48,18H49.2V19.2H48zM51.6,18H52.8V19.2H51.6zM7.2,19.2H8.4V20.4H7.2zM8.4,19.2H9.6V20.4H8.4zM12,19.2H13.2V20.4H12zM14.4,19.2H15.6V20.4H14.4zM16.8,19.2H18V20.4H16.8zM20.4,19.2H21.6V20.4H20.4zM21.6,19.2H22.8V20.4H21.6zM22.8,19.2H24V20.4H22.8zM24,19.2H25.2V20.4H24zM26.4,19.2H27.6V20.4H26.4zM27.6,19.2H28.8V20.4H27.6zM28.8,19.2H30V20.4H28.8zM31.2,19.2H32.4V20.4H31.2zM33.6,19.2H34.8V20.4H33.6zM36,19.2H37.2V20.4H36zM37.2,19.2H38.4V20.4H37.2zM38.4,19.2H39.6V20.4H38.4zM40.8,19.2H42V20.4H40.8zM44.4,19.2H45.6V20.4H44.4zM48,19.2H49.2V20.4H48zM49.2,19.2H50.4V20.4H49.2zM50.4,19.2H51.6V20.4H50.4zM51.6,19.2H52.8V20.4H51.6zM8.4,20.4H9.6V21.6H8.4zM9.6,20.4H10.8V21.6H9.6zM10.8,20.4H12V21.6H10.8zM12,20.4H13.2V21.6H12zM13.2,20.4H14.4V21.6H13.2zM14.4,20.4H15.6V21.6H14.4zM15.6,20.4H16.8V21.6H15.6zM16.8,20.4H18V21.6H16.8zM18,20.4H19.2V21.6H18zM20.4,20.4H21.6V21.6H20.4zM22.8,20.4H24V21.6H22.8zM24,20.4H25.2V21.6H24zM25.2,20.4H26.4V21.6H25.2zM27.6,20.4H28.8V21.6H27.6zM30,20.4H31.2V21.6H30zM36,20.4H37.2V21.6H36zM37.2,20.4H38.4V21.6H37.2zM44.4,20.4H45.6V21.6H44.4zM49.2,20.4H50.4V21.6H49.2zM50.4,20.4H51.6V21.6H50.4zM51.6,20.4H52.8V21.6H51.6zM3.6,21.6H4.8V22.8H3.6zM4.8,21.6H6V22.8H4.8zM6,21.6H7.2V22.8H6zM7.2,21.6H8.4V22.8H7.2zM12,21.6H13.2V22.8H12zM16.8,21.6H18V22.8H16.8zM19.2,21.6H20.4V22.8H19.2zM20.4,21.6H21.6V22.8H20.4zM21.6,21.6H22.8V22.8H21.6zM26.4,21.6H27.6V22.8H26.4zM31.2,21.6H32.4V22.8H31.2zM33.6,21.6H34.8V22.8H33.6zM37.2,21.6H38.4V22.8H37.2zM38.4,21.6H39.6V22.8H38.4zM40.8,21.6H42V22.8H40.8zM44.4,21.6H45.6V22.8H44.4zM46.8,21.6H48V22.8H46.8zM4.8,22.8H6V24H4.8zM8.4,22.8H9.6V24H8.4zM10.8,22.8H12V24H10.8zM12,22.8H13.2V24H12zM13.2,22.8H14.4V24H13.2zM20.4,22.8H21.6V24H20.4zM21.6,22.8H22.8V24H21.6zM22.8,22.8H24V24H22.8zM24,22.8H25.2V24H24zM26.4,22.8H27.6V24H26.4zM27.6,22.8H28.8V24H27.6zM28.8,22.8H30V24H28.8zM33.6,22.8H34.8V24H33.6zM36,22.8H37.2V24H36zM37.2,22.8H38.4V24H37.2zM38.4,22.8H39.6V24H38.4zM42,22.8H43.2V24H42zM44.4,22.8H45.6V24H44.4zM45.6,22.8H46.8V24H45.6zM48,22.8H49.2V24H48zM50.4,22.8H51.6V24H50.4zM51.6,22.8H52.8V24H51.6zM3.6,24H4.8V25.2H3.6zM6,24H7.2V25.2H6zM12,24H13.2V25.2H12zM13.2,24H14.4V25.2H13.2zM14.4,24H15.6V25.2H14.4zM18,24H19.2V25.2H18zM20.4,24H21.6V25.2H20.4zM25.2,24H26.4V25.2H25.2zM26.4,24H27.6V25.2H26.4zM27.6,24H28.8V25.2H27.6zM32.4,24H33.6V25.2H32.4zM37.2,24H38.4V25.2H37.2zM38.4,24H39.6V25.2H38.4zM42,24H43.2V25.2H42zM44.4,24H45.6V25.2H44.4zM48,24H49.2V25.2H48zM50.4,24H51.6V25.2H50.4zM51.6,24H52.8V25.2H51.6zM4.8,25.2H6V26.4H4.8zM6,25.2H7.2V26.4H6zM7.2,25.2H8.4V26.4H7.2zM8.4,25.2H9.6V26.4H8.4zM9.6,25.2H10.8V26.4H9.6zM10.8,25.2H12V26.4H10.8zM13.2,25.2H14.4V26.4H13.2zM15.6,25.2H16.8V26.4H15.6zM19.2,25.2H20.4V26.4H19.2zM20.4,25.2H21.6V26.4H20.4zM21.6,25.2H22.8V26.4H21.6zM24,25.2H25.2V26.4H24zM25.2,25.2H26.4V26.4H25.2zM28.8,25.2H30V26.4H28.8zM30,25.2H31.2V26.4H30zM33.6,25.2H34.8V26.4H33.6zM37.2,25.2H38.4V26.4H37.2zM39.6,25.2H40.8V26.4H39.6zM46.8,25.2H48V26.4H46.8zM48,25.2H49.2V26.4H48zM49.2,25.2H50.4V26.4H49.2zM50.4,25.2H51.6V26.4H50.4zM51.6,25.2H52.8V26.4H51.6zM3.6,26.4H4.8V27.6H3.6zM6,26.4H7.2V27.6H6zM9.6,26.4H10.8V27.6H9.6zM12,26.4H13.2V27.6H12zM14.4,26.4H15.6V27.6H14.4zM15.6,26.4H16.8V27.6H15.6zM16.8,26.4H18V27.6H16.8zM18,26.4H19.2V27.6H18zM21.6,26.4H22.8V27.6H21.6zM24,26.4H25.2V27.6H24zM25.2,26.4H26.4V27.6H25.2zM26.4,26.4H27.6V27.6H26.4zM27.6,26.4H28.8V27.6H27.6zM28.8,26.4H30V27.6H28.8zM30,26.4H31.2V27.6H30zM37.2,26.4H38.4V27.6H37.2zM38.4,26.4H39.6V27.6H38.4zM39.6,26.4H40.8V27.6H39.6zM40.8,26.4H42V27.6H40.8zM45.6,26.4H46.8V27.6H45.6zM50.4,26.4H51.6V27.6H50.4zM4.8,27.6H6V28.8H4.8zM9.6,27.6H10.8V28.8H9.6zM10.8,27.6H12V28.8H10.8zM12,27.6H13.2V28.8H12zM13.2,27.6H14.4V28.8H13.2zM14.4,27.6H15.6V28.8H14.4zM16.8,27.6H18V28.8H16.8zM21.6,27.6H22.8V28.8H21.6zM22.8,27.6H24V28.8H22.8zM27.6,27.6H28.8V28.8H27.6zM32.4,27.6H33.6V28.8H32.4zM36,27.6H37.2V28.8H36zM37.2,27.6H38.4V28.8H37.2zM39.6,27.6H40.8V28.8H39.6zM40.8,27.6H42V28.8H40.8zM43.2,27.6H44.4V28.8H43.2zM44.4,27.6H45.6V28.8H44.4zM50.4,27.6H51.6V28.8H50.4zM51.6,27.6H52.8V28.8H51.6zM7.2,28.8H8.4V30H7.2zM14.4,28.8H15.6V30H14.4zM15.6,28.8H16.8V30H15.6zM19.2,28.8H20.4V30H19.2zM20.4,28.8H21.6V30H20.4zM22.8,28.8H24V30H22.8zM24,28.8H25.2V30H24zM26.4,28.8H27.6V30H26.4zM27.6,28.8H28.8V30H27.6zM30,28.8H31.2V30H30zM32.4,28.8H33.6V30H32.4zM33.6,28.8H34.8V30H33.6zM37.2,28.8H38.4V30H37.2zM39.6,28.8H40.8V30H39.6zM42,28.8H43.2V30H42zM43.2,28.8H44.4V30H43.2zM44.4,28.8H45.6V30H44.4zM49.2,28.8H50.4V30H49.2zM50.4,28.8H51.6V30H50.4zM51.6,28.8H52.8V30H51.6zM3.6,30H4.8V31.2H3.6zM6,30H7.2V31.2H6zM8.4,30H9.6V31.2H8.4zM10.8,30H12V31.2H10.8zM15.6,30H16.8V31.2H15.6zM18,30H19.2V31.2H18zM19.2,30H20.4V31.2H19.2zM20.4,30H21.6V31.2H20.4zM22.8,30H24V31.2H22.8zM24,30H25.2V31.2H24zM25.2,30H26.4V31.2H25.2zM26.4,30H27.6V31.2H26.4zM30,30H31.2V31.2H30zM33.6,30H34.8V31.2H33.6zM39.6,30H40.8V31.2H39.6zM43.2,30H44.4V31.2H43.2zM44.4,30H45.6V31.2H44.4zM45.6,30H46.8V31.2H45.6zM46.8,30H48V31.2H46.8zM48,30H49.2V31.2H48zM50.4,30H51.6V31.2H50.4zM51.6,30H52.8V31.2H51.6zM4.8,31.2H6V32.4H4.8zM7.2,31.2H8.4V32.4H7.2zM9.6,31.2H10.8V32.4H9.6zM12,31.2H13.2V32.4H12zM13.2,31.2H14.4V32.4H13.2zM20.4,31.2H21.6V32.4H20.4zM21.6,31.2H22.8V32.4H21.6zM22.8,31.2H24V32.4H22.8zM25.2,31.2H26.4V32.4H25.2zM26.4,31.2H27.6V32.4H26.4zM27.6,31.2H28.8V32.4H27.6zM28.8,31.2H30V32.4H28.8zM30,31.2H31.2V32.4H30zM33.6,31.2H34.8V32.4H33.6zM36,31.2H37.2V32.4H36zM38.4,31.2H39.6V32.4H38.4zM39.6,31.2H40.8V32.4H39.6zM42,31.2H43.2V32.4H42zM50.4,31.2H51.6V32.4H50.4zM51.6,31.2H52.8V32.4H51.6zM4.8,32.4H6V33.6H4.8zM6,32.4H7.2V33.6H6zM7.2,32.4H8.4V33.6H7.2zM8.4,32.4H9.6V33.6H8.4zM10.8,32.4H12V33.6H10.8zM14.4,32.4H15.6V33.6H14.4zM15.6,32.4H16.8V33.6H15.6zM16.8,32.4H18V33.6H16.8zM18,32.4H19.2V33.6H18zM19.2,32.4H20.4V33.6H19.2zM24,32.4H25.2V33.6H24zM32.4,32.4H33.6V33.6H32.4zM33.6,32.4H34.8V33.6H33.6zM34.8,32.4H36V33.6H34.8zM37.2,32.4H38.4V33.6H37.2zM38.4,32.4H39.6V33.6H38.4zM40.8,32.4H42V33.6H40.8zM42,32.4H43.2V33.6H42zM44.4,32.4H45.6V33.6H44.4zM50.4,32.4H51.6V33.6H50.4zM3.6,33.6H4.8V34.8H3.6zM4.8,33.6H6V34.8H4.8zM6,33.6H7.2V34.8H6zM13.2,33.6H14.4V34.8H13.2zM14.4,33.6H15.6V34.8H14.4zM15.6,33.6H16.8V34.8H15.6zM16.8,33.6H18V34.8H16.8zM19.2,33.6H20.4V34.8H19.2zM20.4,33.6H21.6V34.8H20.4zM21.6,33.6H22.8V34.8H21.6zM22.8,33.6H24V34.8H22.8zM26.4,33.6H27.6V34.8H26.4zM27.6,33.6H28.8V34.8H27.6zM28.8,33.6H30V34.8H28.8zM30,33.6H31.2V34.8H30zM32.4,33.6H33.6V34.8H32.4zM37.2,33.6H38.4V34.8H37.2zM43.2,33.6H44.4V34.8H43.2zM44.4,33.6H45.6V34.8H44.4zM51.6,33.6H52.8V34.8H51.6zM3.6,34.8H4.8V36H3.6zM4.8,34.8H6V36H4.8zM7.2,34.8H8.4V36H7.2zM8.4,34.8H9.6V36H8.4zM10.8,34.8H12V36H10.8zM12,34.8H13.2V36H12zM13.2,34.8H14.4V36H13.2zM14.4,34.8H15.6V36H14.4zM18,34.8H19.2V36H18zM20.4,34.8H21.6V36H20.4zM26.4,34.8H27.6V36H26.4zM27.6,34.8H28.8V36H27.6zM30,34.8H31.2V36H30zM34.8,34.8H36V36H34.8zM38.4,34.8H39.6V36H38.4zM43.2,34.8H44.4V36H43.2zM44.4,34.8H45.6V36H44.4zM45.6,34.8H46.8V36H45.6zM46.8,34.8H48V36H46.8zM49.2,34.8H50.4V36H49.2zM50.4,34.8H51.6V36H50.4zM51.6,34.8H52.8V36H51.6zM4.8,36H6V37.2H4.8zM6,36H7.2V37.2H6zM7.2,36H8.4V37.2H7.2zM14.4,36H15.6V37.2H14.4zM15.6,36H16.8V37.2H15.6zM16.8,36H18V37.2H16.8zM19.2,36H20.4V37.2H19.2zM20.4,36H21.6V37.2H20.4zM21.6,36H22.8V37.2H21.6zM22.8,36H24V37.2H22.8zM26.4,36H27.6V37.2H26.4zM27.6,36H28.8V37.2H27.6zM30,36H31.2V37.2H30zM32.4,36H33.6V37.2H32.4zM33.6,36H34.8V37.2H33.6zM37.2,36H38.4V37.2H37.2zM38.4,36H39.6V37.2H38.4zM42,36H43.2V37.2H42zM43.2,36H44.4V37.2H43.2zM46.8,36H48V37.2H46.8zM50.4,36H51.6V37.2H50.4zM8.4,37.2H9.6V38.4H8.4zM10.8,37.2H12V38.4H10.8zM13.2,37.2H14.4V38.4H13.2zM14.4,37.2H15.6V38.4H14.4zM18,37.2H19.2V38.4H18zM24,37.2H25.2V38.4H24zM27.6,37.2H28.8V38.4H27.6zM32.4,37.2H33.6V38.4H32.4zM33.6,37.2H34.8V38.4H33.6zM36,37.2H37.2V38.4H36zM38.4,37.2H39.6V38.4H38.4zM40.8,37.2H42V38.4H40.8zM42,37.2H43.2V38.4H42zM44.4,37.2H45.6V38.4H44.4zM48,37.2H49.2V38.4H48zM51.6,37.2H52.8V38.4H51.6zM6,38.4H7.2V39.6H6zM7.2,38.4H8.4V39.6H7.2zM8.4,38.4H9.6V39.6H8.4zM12,38.4H13.2V39.6H12zM13.2,38.4H14.4V39.6H13.2zM14.4,38.4H15.6V39.6H14.4zM16.8,38.4H18V39.6H16.8zM18,38.4H19.2V39.6H18zM20.4,38.4H21.6V39.6H20.4zM21.6,38.4H22.8V39.6H21.6zM22.8,38.4H24V39.6H22.8zM26.4,38.4H27.6V39.6H26.4zM30,38.4H31.2V39.6H30zM31.2,38.4H32.4V39.6H31.2zM32.4,38.4H33.6V39.6H32.4zM36,38.4H37.2V39.6H36zM38.4,38.4H39.6V39.6H38.4zM40.8,38.4H42V39.6H40.8zM42,38.4H43.2V39.6H42zM43.2,38.4H44.4V39.6H43.2zM45.6,38.4H46.8V39.6H45.6zM51.6,38.4H52.8V39.6H51.6zM3.6,39.6H4.8V40.8H3.6zM6,39.6H7.2V40.8H6zM8.4,39.6H9.6V40.8H8.4zM10.8,39.6H12V40.8H10.8zM14.4,39.6H15.6V40.8H14.4zM18,39.6H19.2V40.8H18zM22.8,39.6H24V40.8H22.8zM25.2,39.6H26.4V40.8H25.2zM28.8,39.6H30V40.8H28.8zM30,39.6H31.2V40.8H30zM31.2,39.6H32.4V40.8H31.2zM32.4,39.6H33.6V40.8H32.4zM40.8,39.6H42V40.8H40.8zM42,39.6H43.2V40.8H42zM48,39.6H49.2V40.8H48zM49.2,39.6H50.4V40.8H49.2zM50.4,39.6H51.6V40.8H50.4zM51.6,39.6H52.8V40.8H51.6zM4.8,40.8H6V42H4.8zM6,40.8H7.2V42H6zM7.2,40.8H8.4V42H7.2zM8.4,40.8H9.6V42H8.4zM15.6,40.8H16.8V42H15.6zM18,40.8H19.2V42H18zM20.4,40.8H21.6V42H20.4zM21.6,40.8H22.8V42H21.6zM24,40.8H25.2V42H24zM25.2,40.8H26.4V42H25.2zM26.4,40.8H27.6V42H26.4zM30,40.8H31.2V42H30zM32.4,40.8H33.6V42H32.4zM33.6,40.8H34.8V42H33.6zM34.8,40.8H36V42H34.8zM36,40.8H37.2V42H36zM38.4,40.8H39.6V42H38.4zM39.6,40.8H40.8V42H39.6zM42,40.8H43.2V42H42zM43.2,40.8H44.4V42H43.2zM44.4,40.8H45.6V42H44.4zM45.6,40.8H46.8V42H45.6zM50.4,40.8H51.6V42H50.4zM3.6,42H4.8V43.2H3.6zM7.2,42H8.4V43.2H7.2zM8.4,42H9.6V43.2H8.4zM9.6,42H10.8V43.2H9.6zM10.8,42H12V43.2H10.8zM12,42H13.2V43.2H12zM13.2,42H14.4V43.2H13.2zM14.4,42H15.6V43.2H14.4zM15.6,42H16.8V43.2H15.6zM16.8,42H18V43.2H16.8zM18,42H19.2V43.2H18zM20.4,42H21.6V43.2H20.4zM21.6,42H22.8V43.2H21.6zM22.8,42H24V43.2H22.8zM24,42H25.2V43.2H24zM25.2,42H26.4V43.2H25.2zM27.6,42H28.8V43.2H27.6zM28.8,42H30V43.2H28.8zM30,42H31.2V43.2H30zM31.2,42H32.4V43.2H31.2zM32.4,42H33.6V43.2H32.4zM33.6,42H34.8V43.2H33.6zM37.2,42H38.4V43.2H37.2zM38.4,42H39.6V43.2H38.4zM40.8,42H42V43.2H40.8zM42,42H43.2V43.2H42zM43.2,42H44.4V43.2H43.2zM44.4,42H45.6V43.2H44.4zM45.6,42H46.8V43.2H45.6zM46.8,42H48V43.2H46.8zM13.2,43.2H14.4V44.4H13.2zM15.6,43.2H16.8V44.4H15.6zM20.4,43.2H21.6V44.4H20.4zM22.8,43.2H24V44.4H22.8zM24,43.2H25.2V44.4H24zM26.4,43.2H27.6V44.4H26.4zM27.6,43.2H28.8V44.4H27.6zM28.8,43.2H30V44.4H28.8zM33.6,43.2H34.8V44.4H33.6zM39.6,43.2H40.8V44.4H39.6zM40.8,43.2H42V44.4H40.8zM42,43.2H43.2V44.4H42zM46.8,43.2H48V44.4H46.8zM49.2,43.2H50.4V44.4H49.2zM51.6,43.2H52.8V44.4H51.6zM3.6,44.4H4.8V45.6H3.6zM4.8,44.4H6V45.6H4.8zM6,44.4H7.2V45.6H6zM7.2,44.4H8.4V45.6H7.2zM8.4,44.4H9.6V45.6H8.4zM9.6,44.4H10.8V45.6H9.6zM10.8,44.4H12V45.6H10.8zM13.2,44.4H14.4V45.6H13.2zM14.4,44.4H15.6V45.6H14.4zM20.4,44.4H21.6V45.6H20.4zM21.6,44.4H22.8V45.6H21.6zM22.8,44.4H24V45.6H22.8zM26.4,44.4H27.6V45.6H26.4zM28.8,44.4H30V45.6H28.8zM30,44.4H31.2V45.6H30zM32.4,44.4H33.6V45.6H32.4zM34.8,44.4H36V45.6H34.8zM37.2,44.4H38.4V45.6H37.2zM38.4,44.4H39.6V45.6H38.4zM40.8,44.4H42V45.6H40.8zM42,44.4H43.2V45.6H42zM44.4,44.4H45.6V45.6H44.4zM46.8,44.4H48V45.6H46.8zM50.4,44.4H51.6V45.6H50.4zM51.6,44.4H52.8V45.6H51.6zM3.6,45.6H4.8V46.8H3.6zM10.8,45.6H12V46.8H10.8zM16.8,45.6H18V46.8H16.8zM19.2,45.6H20.4V46.8H19.2zM20.4,45.6H21.6V46.8H20.4zM22.8,45.6H24V46.8H22.8zM24,45.6H25.2V46.8H24zM27.6,45.6H28.8V46.8H27.6zM28.8,45.6H30V46.8H28.8zM30,45.6H31.2V46.8H30zM31.2,45.6H32.4V46.8H31.2zM32.4,45.6H33.6V46.8H32.4zM33.6,45.6H34.8V46.8H33.6zM34.8,45.6H36V46.8H34.8zM36,45.6H37.2V46.8H36zM42,45.6H43.2V46.8H42zM46.8,45.6H48V46.8H46.8zM48,45.6H49.2V46.8H48zM3.6,46.8H4.8V48H3.6zM6,46.8H7.2V48H6zM7.2,46.8H8.4V48H7.2zM8.4,46.8H9.6V48H8.4zM10.8,46.8H12V48H10.8zM13.2,46.8H14.4V48H13.2zM14.4,46.8H15.6V48H14.4zM15.6,46.8H16.8V48H15.6zM18,46.8H19.2V48H18zM19.2,46.8H20.4V48H19.2zM21.6,46.8H22.8V48H21.6zM24,46.8H25.2V48H24zM25.2,46.8H26.4V48H25.2zM26.4,46.8H27.6V48H26.4zM28.8,46.8H30V48H28.8zM31.2,46.8H32.4V48H31.2zM32.4,46.8H33.6V48H32.4zM34.8,46.8H36V48H34.8zM36,46.8H37.2V48H36zM37.2,46.8H38.4V48H37.2zM42,46.8H43.2V48H42zM43.2,46.8H44.4V48H43.2zM44.4,46.8H45.6V48H44.4zM45.6,46.8H46.8V48H45.6zM46.8,46.8H48V48H46.8zM3.6,48H4.8V49.2H3.6zM6,48H7.2V49.2H6zM7.2,48H8.4V49.2H7.2zM8.4,48H9.6V49.2H8.4zM10.8,48H12V49.2H10.8zM14.4,48H15.6V49.2H14.4zM16.8,48H18V49.2H16.8zM19.2,48H20.4V49.2H19.2zM20.4,48H21.6V49.2H20.4zM24,48H25.2V49.2H24zM26.4,48H27.6V49.2H26.4zM32.4,48H33.6V49.2H32.4zM34.8,48H36V49.2H34.8zM37.2,48H38.4V49.2H37.2zM38.4,48H39.6V49.2H38.4zM42,48H43.2V49.2H42zM43.2,48H44.4V49.2H43.2zM46.8,48H48V49.2H46.8zM51.6,48H52.8V49.2H51.6zM3.6,49.2H4.8V50.4H3.6zM6,49.2H7.2V50.4H6zM7.2,49.2H8.4V50.4H7.2zM8.4,49.2H9.6V50.4H8.4zM10.8,49.2H12V50.4H10.8zM13.2,49.2H14.4V50.4H13.2zM15.6,49.2H16.8V50.4H15.6zM18,49.2H19.2V50.4H18zM27.6,49.2H28.8V50.4H27.6zM28.8,49.2H30V50.4H28.8zM33.6,49.2H34.8V50.4H33.6zM39.6,49.2H40.8V50.4H39.6zM40.8,49.2H42V50.4H40.8zM45.6,49.2H46.8V50.4H45.6zM46.8,49.2H48V50.4H46.8zM49.2,49.2H50.4V50.4H49.2zM51.6,49.2H52.8V50.4H51.6zM3.6,50.4H4.8V51.6H3.6zM10.8,50.4H12V51.6H10.8zM13.2,50.4H14.4V51.6H13.2zM16.8,50.4H18V51.6H16.8zM21.6,50.4H22.8V51.6H21.6zM22.8,50.4H24V51.6H22.8zM24,50.4H25.2V51.6H24zM25.2,50.4H26.4V51.6H25.2zM27.6,50.4H28.8V51.6H27.6zM30,50.4H31.2V51.6H30zM31.2,50.4H32.4V51.6H31.2zM32.4,50.4H33.6V51.6H32.4zM33.6,50.4H34.8V51.6H33.6zM36,50.4H37.2V51.6H36zM37.2,50.4H38.4V51.6H37.2zM38.4,50.4H39.6V51.6H38.4zM39.6,50.4H40.8V51.6H39.6zM40.8,50.4H42V51.6H40.8zM42,50.4H43.2V51.6H42zM44.4,50.4H45.6V51.6H44.4zM45.6,50.4H46.8V51.6H45.6zM50.4,50.4H51.6V51.6H50.4zM3.6,51.6H4.8V52.8H3.6zM4.8,51.6H6V52.8H4.8zM6,51.6H7.2V52.8H6zM7.2,51.6H8.4V52.8H7.2zM8.4,51.6H9.6V52.8H8.4zM9.6,51.6H10.8V52.8H9.6zM10.8,51.6H12V52.8H10.8zM14.4,51.6H15.6V52.8H14.4zM15.6,51.6H16.8V52.8H15.6zM19.2,51.6H20.4V52.8H19.2zM21.6,51.6H22.8V52.8H21.6zM24,51.6H25.2V52.8H24zM25.2,51.6H26.4V52.8H25.2zM27.6,51.6H28.8V52.8H27.6zM30,51.6H31.2V52.8H30zM32.4,51.6H33.6V52.8H32.4zM33.6,51.6H34.8V52.8H33.6zM36,51.6H37.2V52.8H36zM37.2,51.6H38.4V52.8H37.2zM38.4,51.6H39.6V52.8H38.4zM42,51.6H43.2V52.8H42zM43.2,51.6H44.4V52.8H43.2zM45.6,51.6H46.8V52.8H45.6zM46.8,51.6H48V52.8H46.8zM48,51.6H49.2V52.8H48zM50.4,51.6H51.6V52.8H50.4zM51.6,51.6H52.8V52.8H51.6z" id="qr-path" fill="#000000" fill-opacity="1" fill-rule="nonzero" stroke="none"/></svg>