<?xml version='1.0' encoding='UTF-8'?>
<svg width="46.8mm" height="46.8mm" version="1.1" viewBox="0 0 46.8 46.8" xmlns="http://www.w3.org/2000/svg"><path d="M3.6,3.6H4.8V4.8H3.6zM4.8,3.6H6V4.8H4.8zM6,3.6H7.2V4.8H6zM7.2,3.6H8.4V4.8H7.2zM8.4,3.6H9.6V4.8H8.4zM9.6,3.6H10.8V4.8H9.6zM10.8,3.6H12V4.8H10.8zM18,3.6H19.2V4.8H18zM19.2,3.6H20.4V4.8H19.2zM21.6,3.6H22.8V4.8H21.6zM22.8,3.6H24V4.8H22.8zM25.2,3.6H26.4V4.8H25.2zM26.4,3.6H27.6V4.8H26.4zM28.8,3.6H30V4.8H28.8zM31.2,3.6H32.4V4.8H31.2zM34.8,3.6H36V4.8H34.8zM36,3.6H37.2V4.8H36zM37.2,3.6H38.4V4.8H37.2zM38.4,3.6H39.6V4.8H38.4zM39.6,3.6H40.8V4.8H39.6zM40.8,3.6H42V4.8H40.8zM42,3.6H43.2V4.8H42zM3.6,4.8H4.8V6H3.6zM10.8,4.8H12V6H10.8zM13.2,4.8H14.4V6H13.2zM14.4,4.8H15.6V6H14.4zM15.6,4.8H16.8V6H15.6zM16.8,4.8H18V6H16.8zM19.2,4.8H20.4V6H19.2zM20.4,4.8H21.6V6H20.4zM22.8,4.8H24V6H22.8zM24,4.8H25.2V6H24zM27.6,4.8H28.8V6H27.6zM28.8,4.8H30V6H28.8zM30,4.8H31.2V6H30zM31.2,4.8H32.4V6H31.2zM34.8,4.8H36V6H34.8zM42,4.8H43.2V6H42zM3.6,6H4.8V7.2H3.6zM6,6H7.2V7.2H6zM7.2,6H8.4V7.2H7.2zM8.4,6H9.6V7.2H8.4zM10.8,6H12V7.2H10.8zM13.2,6H14.4V7.2H13.2zM14.4,6H15.6V7.2H14.4zM16.8,6H18V7.2H16.8zM19.2,6H20.4V7.2H19.2zM25.2,6H26.4V7.2H25.2zM26.4,6H27.6V7.2H26.4zM30,6H31.2V7.2H30zM34.8,6H36V7.2H34.8zM37.2,6H38.4V7.2H37.2zM38.4,6H39.6V7.2H38.4zM39.6,6H40.8V7.2H39.6zM42,6H43.2V7.2H42zM3.6,7.2H4.8V8.4H3.6zM6,7.2H7.2V8.4H6zM7.2,7.2H8.4V8.4H7.2zM8.4,7.2H9.6V8.4H8.4zM10.8,7.2H12V8.4H10.8zM16.8,7.2H18V8.4H16.8zM18,7.2H19.2V8.4H18zM22.8,7.2H24V8.4H22.8zM25.2,7.2H26.4V8.4H25.2zM30,7.2H31.2V8.4H30zM31.2,7.2H32.4V8.4H31.2zM34.8,7.2H36V8.4H34.8zM37.2,7.2H38.4V8.4H37.2zM38.4,7.2H39.6V8.4H38.4zM39.6,7.2H40.8V8.4H39.6zM42,7.2H43.2V8.4H42zM3.6,8.4H4.8V9.6H3.6zM6,8.4H7.2V9.6H6zM7.2,8.4H8.4V9.6H7.2zM8.4,8.4H9.6V9.6H8.4zM10.8,8.4H12V9.6H10.8zM14.4,8.4H15.6V9.6H14.4zM16.8,8.4H18V9.6H16.8zM18,8.4H19.2V9.6H18zM19.2,8.4H20.4V9.6H19.2zM20.4,8.4H21.6V9.6H20.4zM21.6,8.4H22.8V9.6H21.6zM25.2,8.4H26.4V9.6H25.2zM28.8,8.4H30V9.6H28.8zM32.4,8.4H33.6V9.6H32.4zM34.8,8.4H36V9.6H34.8zM37.2,8.4H38.4V9.6H37.2zM38.4,8.4H39.6V9.6H38.4zM39.6,8.4H40.8V9.6H39.6zM42,8.4H43.2V9.6H42zM3.6,9.6H4.8V10.8H3.6zM10.8,9.6H12V10.8H10.8zM14.4,9.6H15.6V10.8H14.4zM15.6,9.6H16.8V10.8H15.6zM18,9.6H19.2V10.8H18zM20.4,9.6H21.6V10.8H20.4zM21.6,9.6H22.8V10.8H21.6zM22.8,9.6H24V10.8H22.8zM24,9.6H25.2V10.8H24zM25.2,9.6H26.4V10.8H25.2zM28.8,9.6H30V10.8H28.8zM34.8,9.6H36V10.8H34.8zM42,9.6H43.2V10.8H42zM3.6,10.8H4.8V12H3.6zM4.8,10.8H6V12H4.8zM6,10.8H7.2V12H6zM7.2,10.8H8.4V12H7.2zM8.4,10.8H9.6V12H8.4zM9.6,10.8H10.8V12H9.6zM10.8,10.8H12V12H10.8zM13.2,10.8H14.4V12H13.2zM15.6,10.8H16.8V12H15.6zM18,10.8H19.2V12H18zM20.4,10.8H21.6V12H20.4zM22.8,10.8H24V12H22.8zM25.2,10.8H26.4V12H25.2zM27.6,10.8H28.8V12H27.6zM30,10.8H31.2V12H30zM32.4,10.8H33.6V12H32.4zM34.8,10.8H36V12H34.8zM36,10.8H37.2V12H36zM37.2,10.8H38.4V12H37.2zM38.4,10.8H39.6V12H38.4zM39.6,10.8H40.8V12H39.6zM40.8,10.8H42V12H40.8zM42,10.8H43.2V12H42zM14.4,12H15.6V13.2H14.4zM16.8,12H18V13.2H16.8zM20.4,12H21.6V13.2H20.4zM21.6,12H22.8V13.2H21.6zM24,12H25.2V13.2H24zM25.2,12H26.4V13.2H25.2zM26.4,12H27.6V13.2H26.4zM30,12H31.2V13.2H30zM4.8,13.2H6V14.4H4.8zM6,13.2H7.2V14.4H6zM7.2,13.2H8.4V14.4H7.2zM9.6,13.2H10.8V14.4H9.6zM10.8,13.2H12V14.4H10.8zM15.6,13.2H16.8V14.4H15.6zM16.8,13.2H18V14.4H16.8zM18,13.2H19.2V14.4H18zM22.8,13.2H24V14.4H22.8zM24,13.2H25.2V14.4H24zM25.2,13.2H26.4V14.4H25.2zM27.6,13.2H28.8V14.4H27.6zM28.8,13.2H30V14.4H28.8zM39.6,13.2H40.8V14.4H39.6zM40.8,13.2H42V14.4H40.8zM7.2,14.4H8.4V15.6H7.2zM8.4,14.4H9.6V15.6H8.4zM13.2,14.4H14.4V15.6H13.2zM14.4,14.4H15.6V15.6H14.4zM24,14.4H25.2V15.6H24zM25.2,14.4H26.4V15.6H25.2zM26.4,14.4H27.6V15.6H26.4zM28.8,14.4H30V15.6H28.8zM30,14.4H31.2V15.6H30zM31.2,14.4H32.4V15.6H31.2zM34.8,14.4H36V15.6H34.8zM38.4,14.4H39.6V15.6H38.4zM39.6,14.4H40.8V15.6H39.6zM42,14.4H43.2V15.6H42zM3.6,15.6H4.8V16.8H3.6zM10.8,15.6H12V16.8H10.8zM12,15.6H13.2V16.8H12zM13.2,15.6H14.4V16.8H13.2zM14.4,15.6H15.6V16.8H14.4zM15.6,15.6H16.8V16.8H15.6zM16.8,15.6H18V16.8H16.8zM25.2,15.6H26.4V16.8H25.2zM27.6,15.6H28.8V16.8H27.6zM30,15.6H31.2V16.8H30zM31.2,15.6H32.4V16.8H31.2zM33.6,15.6H34.8V16.8H33.6zM36,15.6H37.2V16.8H36zM37.2,15.6H38.4V16.8H37.2zM38.4,15.6H39.6V16.8H38.4zM40.8,15.6H42V16.8H40.8zM42,15.6H43.2V16.8H42zM7.2,16.8H8.4V18H7.2zM8.4,16.8H9.6V18H8.4zM12,16.8H13.2V18H12zM13.2,16.8H14.4V18H13.2zM14.4,16.8H15.6V18H14.4zM16.8,16.8H18V18H16.8zM18,16.8H19.2V18H18zM19.2,16.8H20.4V18H19.2zM22.8,16.8H24V18H22.8zM24,16.8H25.2V18H24zM26.4,16.8H27.6V18H26.4zM32.4,16.8H33.6V18H32.4zM36,16.8H37.2V18H36zM38.4,16.8H39.6V18H38.4zM40.8,16.8H42V18H40.8zM3.6,18H4.8V19.2H3.6zM4.8,18H6V19.2H4.8zM6,18H7.2V19.2H6zM7.2,18H8.4V19.2H7.2zM8.4,18H9.6V19.2H8.4zM9.6,18H10.8V19.2H9.6zM10.8,18H12V19.2H10.8zM13.2,18H14.4V19.2H13.2zM15.6,18H16.8V19.2H15.6zM19.2,18H20.4V19.2H19.2zM21.6,18H22.8V19.2H21.6zM22.8,18H24V19.2H22.8zM26.4,18H27.6V19.2H26.4zM27.6,18H28.8V19.2H27.6zM30,18H31.2V19.2H30zM31.2,18H32.4V19.2H31.2zM33.6,18H34.8V19.2H33.6zM36,18H37.2V19.2H36zM37.2,18H38.4V19.2H37.2zM38.4,18H39.6V19.2H38.4zM40.8,18H42V19.2H40.8zM6,19.2H7.2V20.4H6zM8.4,19.2H9.6V20.4H8.4zM13.2,19.2H14.4V20.4H13.2zM14.4,19.2H15.6V20.4H14.4zM15.6,19.2H16.8V20.4H15.6zM18,19.2H19.2V20.4H18zM21.6,19.2H22.8V20.4H21.6zM22.8,19.2H24V20.4H22.8zM27.6,19.2H28.8V20.4H27.6zM30,19.2H31.2V20.4H30zM32.4,19.2H33.6V20.4H32.4zM36,19.2H37.2V20.4H36zM40.8,19.2H42V20.4H40.8zM3.6,20.4H4.8V21.6H3.6zM4.8,20.4H6V21.6H4.8zM6,20.4H7.2V21.6H6zM8.4,20.4H9.6V21.6H8.4zM9.6,20.4H10.8V21.6H9.6zM10.8,20.4H12V21.6H10.8zM12,20.4H13.2V21.6H12zM15.6,20.4H16.8V21.6H15.6zM18,20.4H19.2V21.6H18zM19.2,20.4H20.4V21.6H19.2zM21.6,20.4H22.8V21.6H21.6zM24,20.4H25.2V21.6H24zM26.4,20.4H27.6V21.6H26.4zM27.6,20.4H28.8V21.6H27.6zM28.8,20.4H30V21.6H28.8zM30,20.4H31.2V21.6H30zM32.4,20.4H33.6V21.6H32.4zM34.8,20.4H36V21.6H34.8zM37.2,20.4H38.4V21.6H37.2zM38.4,20.4H39.6V21.6H38.4zM3.6,21.6H4.8V22.8H3.6zM4.8,21.6H6V22.8H4.8zM8.4,21.6H9.6V22.8H8.4zM9.6,21.6H10.8V22.8H9.6zM14.4,21.6H15.6V22.8H14.4zM20.4,21.6H21.6V22.8H20.4zM21.6,21.6H22.8V22.8H21.6zM28.8,21.6H30V22.8H28.8zM30,21.6H31.2V22.8H30zM38.4,21.6H39.6V22.8H38.4zM39.6,21.6H40.8V22.8H39.6zM3.6,22.8H4.8V24H3.6zM4.8,22.8H6V24H4.8zM6,22.8H7.2V24H6zM7.2,22.8H8.4V24H7.2zM8.4,22.8H9.6V24H8.4zM9.6,22.8H10.8V24H9.6zM10.8,22.8H12V24H10.8zM12,22.8H13.2V24H12zM13.2,22.8H14.4V24H13.2zM18,22.8H19.2V24H18zM20.4,22.8H21.6V24H20.4zM28.8,22.8H30V24H28.8zM30,22.8H31.2V24H30zM31.2,22.8H32.4V24H31.2zM33.6,22.8H34.8V24H33.6zM34.8,22.8H36V24H34.8zM37.2,22.8H38.4V24H37.2zM39.6,22.8H40.8V24H39.6zM8.4,24H9.6V25.2H8.4zM9.6,24H10.8V25.2H9.6zM12,24H13.2V25.2H12zM13.2,24H14.4V25.2H13.2zM16.8,24H18V25.2H16.8zM20.4,24H21.6V25.2H20.4zM21.6,24H22.8V25.2H21.6zM22.8,24H24V25.2H22.8zM24,24H25.2V25.2H24zM28.8,24H30V25.2H28.8zM31.2,24H32.4V25.2H31.2zM32.4,24H33.6V25.2H32.4zM33.6,24H34.8V25.2H33.6zM34.8,24H36V25.2H34.8zM37.2,24H38.4V25.2H37.2zM38.4,24H39.6V25.2H38.4zM40.8,24H42V25.2H40.8zM42,24H43.2V25.2H42zM9.6,25.2H10.8V26.4H9.6zM10.8,25.2H12V26.4H10.8zM13.2,25.2H14.4V26.4H13.2zM15.6,25.2H16.8V26.4H15.6zM24,25.2H25.2V26.4H24zM25.2,25.2H26.4V26.4H25.2zM28.8,25.2H30V26.4H28.8zM33.6,25.2H34.8V26.4H33.6zM34.8,25.2H36V26.4H34.8zM37.2,25.2H38.4V26.4H37.2zM39.6,25.2H40.8V26.4H39.6zM40.8,25.2H42V26.4H40.8zM4.8,26.4H6V27.6H4.8zM6,26.4H7.2V27.6H6zM9.6,26.4H10.8V27.6H9.6zM12,26.4H13.2V27.6H12zM13.2,26.4H14.4V27.6H13.2zM14.4,26.4H15.6V27.6H14.4zM16.8,26.4H18V27.6H16.8zM20.4,26.4H21.6V27.6H20.4zM22.8,26.4H24V27.6H22.8zM27.6,26.4H28.8V27.6H27.6zM30,26.4H31.2V27.6H30zM31.2,26.4H32.4V27.6H31.2zM34.8,26.4H36V27.6H34.8zM36,26.4H37.2V27.6H36zM37.2,26.4H38.4V27.6H37.2zM3.6,27.6H4.8V28.8H3.6zM8.4,27.6H9.6V28.8H8.4zM9.6,27.6H10.8V28.8H9.6zM10.8,27.6H12V28.8H10.8zM14.4,27.6H15.6V28.8H14.4zM18,27.6H19.2V28.8H18zM20.4,27.6H21.6V28.8H20.4zM21.6,27.6H22.8V28.8H21.6zM24,27.6H25.2V28.8H24zM26.4,27.6H27.6V28.8H26.4zM30,27.6H31.2V28.8H30zM32.4,27.6H33.6V28.8H32.4zM33.6,27.6H34.8V28.8H33.6zM36,27.6H37.2V28.8H36zM38.4,27.6H39.6V28.8H38.4zM39.6,27.6H40.8V28.8H39.6zM42,27.6H43.2V28.8H42zM3.6,28.8H4.8V30H3.6zM4.8,28.8H6V30H4.8zM6,28.8H7.2V30H6zM7.2,28.8H8.4V30H7.2zM8.4,28.8H9.6V30H8.4zM9.6,28.8H10.8V30H9.6zM16.8,28.8H18V30H16.8zM19.2,28.8H20.4V30H19.2zM20.4,28.8H21.6V30H20.4zM21.6,28.8H22.8V30H21.6zM27.6,28.8H28.8V30H27.6zM28.8,28.8H30V30H28.8zM31.2,28.8H32.4V30H31.2zM34.8,28.8H36V30H34.8zM42,28.8H43.2V30H42zM6,30H7.2V31.2H6zM9.6,30H10.8V31.2H9.6zM10.8,30H12V31.2H10.8zM12,30H13.2V31.2H12zM13.2,30H14.4V31.2H13.2zM16.8,30H18V31.2H16.8zM24,30H25.2V31.2H24zM26.4,30H27.6V31.2H26.4zM27.6,30H28.8V31.2H27.6zM30,30H31.2V31.2H30zM31.2,30H32.4V31.2H31.2zM32.4,30H33.6V31.2H32.4zM33.6,30H34.8V31.2H33.6zM38.4,30H39.6V31.2H38.4zM40.8,30H42V31.2H40.8zM42,30H43.2V31.2H42zM4.8,31.2H6V32.4H4.8zM6,31.2H7.2V32.4H6zM7.2,31.2H8.4V32.4H7.2zM8.4,31.2H9.6V32.4H8.4zM12,31.2H13.2V32.4H12zM13.2,31.2H14.4V32.4H13.2zM15.6,31.2H16.8V32.4H15.6zM16.8,31.2H18V32.4H16.8zM19.2,31.2H20.4V32.4H19.2zM21.6,31.2H22.8V32.4H21.6zM22.8,31.2H24V32.4H22.8zM27.6,31.2H28.8V32.4H27.6zM30,31.2H31.2V32.4H30zM31.2,31.2H32.4V32.4H31.2zM34.8,31.2H36V32.4H34.8zM42,31.2H43.2V32.4H42zM3.6,32.4H4.8V33.6H3.6zM10.8,32.4H12V33.6H10.8zM12,32.4H13.2V33.6H12zM14.4,32.4H15.6V33.6H14.4zM15.6,32.4H16.8V33.6H15.6zM16.8,32.4H18V33.6H16.8zM20.4,32.4H21.6V33.6H20.4zM22.8,32.4H24V33.6H22.8zM25.2,32.4H26.4V33.6H25.2zM26.4,32.4H27.6V33.6H26.4zM27.6,32.4H28.8V33.6H27.6zM32.4,32.4H33.6V33.6H32.4zM33.6,32.4H34.8V33.6H33.6zM34.8,32.4H36V33.6H34.8zM36,32.4H37.2V33.6H36zM37.2,32.4H38.4V33.6H37.2zM40.8,32.4H42V33.6H40.8zM13.2,33.6H14.4V34.8H13.2zM14.4,33.6H15.6V34.8H14.4zM15.6,33.6H16.8V34.8H15.6zM18,33.6H19.2V34.8H18zM19.2,33.6H20.4V34.8H19.2zM20.4,33.6H21.6V34.8H20.4zM22.8,33.6H24V34.8H22.8zM25.2,33.6H26.4V34.8H25.2zM26.4,33.6H27.6V34.8H26.4zM27.6,33.6H28.8V34.8H27.6zM28.8,33.6H30V34.8H28.8zM30,33.6H31.2V34.8H30zM31.2,33.6H32.4V34.8H31.2zM32.4,33.6H33.6V34.8H32.4zM37.2,33.6H38.4V34.8H37.2zM38.4,33.6H39.6V34.8H38.4zM3.6,34.8H4.8V36H3.6zM4.8,34.8H6V36H4.8zM6,34.8H7.2V36H6zM7.2,34.8H8.4V36H7.2zM8.4,34.8H9.6V36H8.4zM9.6,34.8H10.8V36H9.6zM10.8,34.8H12V36H10.8zM16.8,34.8H18V36H16.8zM18,34.8H19.2V36H18zM21.6,34.8H22.8V36H21.6zM22.8,34.8H24V36H22.8zM25.2,34.8H26.4V36H25.2zM26.4,34.8H27.6V36H26.4zM28.8,34.8H30V36H28.8zM31.2,34.8H32.4V36H31.2zM32.4,34.8H33.6V36H32.4zM34.8,34.8H36V36H34.8zM37.2,34.8H38.4V36H37.2zM3.6,36H4.8V37.2H3.6zM10.8,36H12V37.2H10.8zM13.2,36H14.4V37.2H13.2zM14.4,36H15.6V37.2H14.4zM18,36H19.2V37.2H18zM20.4,36H21.6V37.2H20.4zM24,36H25.2V37.2H24zM25.2,36H26.4V37.2H25.2zM31.2,36H32.4V37.2H31.2zM32.4,36H33.6V37.2H32.4zM37.2,36H38.4V37.2H37.2zM39.6,36H40.8V37.2H39.6zM40.8,36H42V37.2H40.8zM3.6,37.2H4.8V38.4H3.6zM6,37.2H7.2V38.4H6zM7.2,37.2H8.4V38.4H7.2zM8.4,37.2H9.6V38.4H8.4zM10.8,37.2H12V38.4H10.8zM14.4,37.2H15.6V38.4H14.4zM18,37.2H19.2V38.4H18zM19.2,37.2H20.4V38.4H19.2zM24,37.2H25.2V38.4H24zM26.4,37.2H27.6V38.4H26.4zM30,37.2H31.2V38.4H30zM31.2,37.2H32.4V38.4H31.2zM32.4,37.2H33.6V38.4H32.4zM33.6,37.2H34.8V38.4H33.6zM34.8,37.2H36V38.4H34.8zM36,37.2H37.2V38.4H36zM37.2,37.2H38.4V38.4H37.2zM39.6,37.2H40.8V38.4H39.6zM3.6,38.4H4.8V39.6H3.6zM6,38.4H7.2V39.6H6zM7.2,38.4H8.4V39.6H7.2zM8.4,38.4H9.6V39.6H8.4zM10.8,38.4H12V39.6H10.8zM13.2,38.4H14.4V39.6H13.2zM14.4,38.4H15.6V39.6H14.4zM16.8,38.4H18V39.6H16.8zM18,38.4H19.2V39.6H18zM20.4,38.4H21.6V39.6H20.4zM24,38.4H25.2V39.6H24zM26.4,38.4H27.6V39.6H26.4zM28.8,38.4H30V39.6H28.8zM30,38.4H31.2V39.6H30zM31.2,38.4H32.4V39.6H31.2zM32.4,38.4H33.6V39.6H32.4zM38.4,38.4H39.6V39.6H38.4zM39.6,38.4H40.8V39.6H39.6zM40.8,38.4H42V39.6H40.8zM42,38.4H43.2V39.6H42zM3.6,39.6H4.8V40.8H3.6zM6,39.6H7.2V40.8H6zM7.2,39.6H8.4V40.8H7.2zM8.4,39.6H9.6V40.8H8.4zM10.8,39.6H12V40.8H10.8zM13.2,39.6H14.4V40.8H13.2zM15.6,39.6H16.8V40.8H15.6zM16.8,39.6H18V40.8H16.8zM21.6,39.6H22.8V40.8H21.6zM24,39.6H25.2V40.8H24zM27.6,39.6H28.8V40.8H27.6zM32.4,39.6H33.6V40.8H32.4zM34.8,39.6H36V40.8H34.8zM36,39.6H37.2V40.8H36zM3.6,40.8H4.8V42H3.6zM10.8,40.8H12V42H10.8zM13.2,40.8H14.4V42H13.2zM15.6,40.8H16.8V42H15.6zM16.8,40.8H18V42H16.8zM19.2,40.8H20.4V42H19.2zM20.4,40.8H21.6V42H20.4zM24,40.8H25.2V42H24zM25.2,40.8H26.4V42H25.2zM27.6,40.8H28.8V42H27.6zM32.4,40.8H33.6V42H32.4zM34.8,40.8H36V42H34.8zM37.2,40.8H38.4V42H37.2zM42,40.8H43.2V42H42zM3.6,42H4.8V43.2H3.6zM4.8,42H6V43.2H4.8zM6,42H7.2V43.2H6zM7.2,42H8.4V43.2H7.2zM8.4,42H9.6V43.2H8.4zM9.6,42H10.8V43.2H9.6zM10.8,42H12V43.2H10.8zM20.4,42H21.6V43.2H20.4zM21.6,42H22.8V43.2H21.6zM24,42H25.2V43.2H24zM25.2,42H26.4V43.2H25.2zM26.4,42H27.6V43.2H26.4zM27.6,42H28.8V43.2H27.6zM28.8,42H30V43.2H28.8zM30,42H31.2V43.2H30zM31.2,42H32.4V43.2H31.2zM34.8,42H36V43.2H34.8zM39.6,42H40.8V43.2H39.6z" id="qr-path" fill="#000000" fill-opacity="1" fill-rule="nonzero" stroke="none"/></svg>